<?xml version="1.0" encoding="utf-8"?>
<!-- Generator: Adobe Illustrator 16.0.0, SVG Export Plug-In . SVG Version: 6.00 Build 0)  -->
<!DOCTYPE svg PUBLIC "-//W3C//DTD SVG 1.1//EN" "http://www.w3.org/Graphics/SVG/1.1/DTD/svg11.dtd">
<svg version="1.1" xmlns="http://www.w3.org/2000/svg" xmlns:xlink="http://www.w3.org/1999/xlink" x="0px" y="0px" width="1400px"
	 height="980px" viewBox="0 0 1400 980" enable-background="new 0 0 1400 980" xml:space="preserve">
<g id="BACKGROUND">
	<rect x="-11" y="-12" fill="#AA6152" width="1422" height="1004"/>
</g>
<g id="OBJECTS">
	<g>
		<defs>
			<rect id="SVGID_1_" x="-11" y="-12" width="1422" height="1004"/>
		</defs>
		<clipPath id="SVGID_2_">
			<use xlink:href="#SVGID_1_"  overflow="visible"/>
		</clipPath>
		<g clip-path="url(#SVGID_2_)">
			<rect x="-11" y="-12" fill="#C47959" width="65.084" height="1004"/>
			<rect x="73.807" y="-12" fill="#C47959" width="65.084" height="1004"/>
			<rect x="158.614" y="-12" fill="#C47959" width="65.085" height="1004"/>
			<rect x="243.421" y="-12" fill="#C47959" width="65.085" height="1004"/>
			<rect x="328.229" y="-12" fill="#C47959" width="65.084" height="1004"/>
			<rect x="413.036" y="-12" fill="#C47959" width="65.084" height="1004"/>
			<rect x="497.843" y="-12" fill="#C47959" width="65.084" height="1004"/>
			<rect x="582.65" y="-12" fill="#C47959" width="65.085" height="1004"/>
			<rect x="667.458" y="-12" fill="#C47959" width="65.084" height="1004"/>
			<rect x="752.265" y="-12" fill="#C47959" width="65.085" height="1004"/>
			<rect x="837.072" y="-12" fill="#C47959" width="65.084" height="1004"/>
			<rect x="921.879" y="-12" fill="#C47959" width="65.085" height="1004"/>
			<rect x="1006.687" y="-12" fill="#C47959" width="65.085" height="1004"/>
			<rect x="1091.494" y="-12" fill="#C47959" width="65.084" height="1004"/>
			<rect x="1176.301" y="-12" fill="#C47959" width="65.085" height="1004"/>
			<rect x="1261.108" y="-12" fill="#C47959" width="65.084" height="1004"/>
			<rect x="1345.915" y="-12" fill="#C47959" width="65.085" height="1004"/>
		</g>
		<g clip-path="url(#SVGID_2_)">
			<path fill="#DFDA7E" d="M93.81-31.397c1.247-4.401-20.195-2.868-35.564,0.542c-1.887,0.078-3.751,0.219-5.586,0.423
				c3.125-4.617-1.487-8.204-1.487-8.204c-7.809,1.27-15.403,4.969-21.767,9.005c6.549-6.515,11.42-15.682,8.437-15.466
				c-1.23,0.089-2.716,0.839-4.228,1.882c4.358-11.811,4.341-20.933,4.341-20.933c-7.138,1.564-13.075,4.025-18.026,7.074
				c0.175-1.92,0.043-3.584-0.653-4.532c-1.65-2.245-8.925,8.638-13.029,17.302c-0.667,0.937-1.296,1.886-1.884,2.845
				c-1.052-3.229-4.5-2.351-4.5-2.351c-5.908,10.83-3.651,26.952-3.651,26.952l0,0c-0.686,5.707-0.571,10.346-0.422,12.77
				c-0.204,0.178-0.4,0.351-0.58,0.51c-1.187-0.458-6.497-2.4-13.899-3.507l0,0c0,0-14.948-6.448-26.956-3.621
				c0,0-1.76,3.092,1.074,4.962c-1.081,0.312-2.163,0.667-3.242,1.063C-57.255-3.02-69.676,1.111-67.95,3.297
				c0.729,0.923,2.299,1.491,4.197,1.831c-4.251,3.965-8.197,9.038-11.598,15.507c0,0,8.792,2.434,21.335,1.361
				c-1.406,1.182-2.523,2.416-2.935,3.578c-1.265,3.57,15.309-1.01,22.848-8.135c-0.431,0.752-0.723,1.394-0.928,1.959
				c-6.688,5.522-14.173,13.146-18.179,22.037c0,0,2.269,5.385,7.539,3.562c-0.674,1.72-1.292,3.484-1.857,5.286
				c-7.275,13.961-14.312,34.273-9.737,34.209c1.931-0.027,4.24-1.504,6.581-3.637c0.915,9.502,3.579,19.715,8.606,30.612
				c0,0,11.959-9.02,23.103-26.433c0.134,3.012,0.624,5.701,1.727,7.399c3.386,5.216,13.989-20.954,12.245-37.898
				c3.647,8.733,7.167,5.711,7.167,5.711c1.166-4.114,1.633-8.68,1.678-13.245c1.627,10.467,4.867,22.945,11.33,31.37
				c0,0,5.862,1.365,7.407-11.047c4.135,20.818,28.306,44.823,30.844,36.669c0.826-2.654,0.456-6.089-0.515-9.682
				c21.551,13.469,40.99,16.654,40.99,16.654c2.564-15.779-0.942-25.104-3.346-36.74c3.945,1.052,7.597,1.359,10.19,0.208
				c6.143-2.729-11.023-22.091-26.083-33.905c-1.443-1.755-2.944-3.432-4.501-5.024c7.743-1.104,8.722-8.77,8.722-8.77
				c-6.619-5.981-15.625-9.895-24.403-12.461c-0.709-0.874-1.72-1.856-3.141-2.954c15.914,6.076,43.937,2.616,39.777-2.006
				c-1.355-1.505-3.825-2.675-6.7-3.585c19.705-6.251,31.516-15.465,31.516-15.465c-9.222-7.679-18.396-12.898-27.337-16.244
				C91.258-27.691,93.284-29.539,93.81-31.397z M2.217,28.945c-0.217-1.251-0.44-2.433-0.66-3.517
				c0.213,0.762,0.426,1.526,0.65,2.275l-0.007-0.009C2.201,27.695,2.201,28.149,2.217,28.945z"/>
			<path fill="none" stroke="#4B6842" stroke-miterlimit="10" d="M77.749,88.431c0,0-46.044-54.771-80.944-88.955"/>
			<line fill="none" stroke="#4B6842" stroke-miterlimit="10" x1="52.401" y1="82.459" x2="45.758" y2="51.58"/>
			<path fill="none" stroke="#4B6842" stroke-miterlimit="10" d="M73.823,53.009c0,0-38.107-24.222-45.461-20.678"/>
			<path fill="none" stroke="#4B6842" stroke-miterlimit="10" d="M18.082,47.417c0,0-10.917-16.192-3.692-30.036"/>
			<path fill="none" stroke="#4B6842" stroke-miterlimit="10" d="M92.884-10.019c0,0-59.399,2.983-99.544,8.169"/>
			<line fill="none" stroke="#4B6842" stroke-miterlimit="10" x1="76.275" y1="1.27" x2="52.415" y2="-7.467"/>
			<path fill="none" stroke="#4B6842" stroke-miterlimit="10" d="M67.357-22.034c0,0-35.114,10.89-36.423,16.271"/>
			<path fill="none" stroke="#4B6842" stroke-miterlimit="10" d="M35.848,5.8c0,0-16.217-0.572-21.827-9.992"/>
			<path fill="none" stroke="#4B6842" stroke-miterlimit="10" d="M-36.377,89.137c0,0,18.272-56.598,33.683-94.028"/>
			<line fill="none" stroke="#4B6842" stroke-miterlimit="10" x1="-21.17" y1="76.02" x2="-23.426" y2="50.71"/>
			<path fill="none" stroke="#4B6842" stroke-miterlimit="10" d="M-41.368,61.368c0,0,19.617-31.093,25.153-30.963"/>
			<path fill="none" stroke="#4B6842" stroke-miterlimit="10" d="M-6.319,38.146c0,0,3.649-15.811-3.996-23.671"/>
			<path fill="none" stroke="#4B6842" stroke-miterlimit="10" d="M-62.45,15.11c0,0,34.117-12.156,57.913-18.589"/>
			<line fill="none" stroke="#4B6842" stroke-miterlimit="10" x1="-50.475" y1="17.594" x2="-39.084" y2="7.121"/>
			<path fill="none" stroke="#4B6842" stroke-miterlimit="10" d="M-50.885,2.404c0,0,22.294-2.051,24.284,0.672"/>
			<path fill="none" stroke="#4B6842" stroke-miterlimit="10" d="M-26.673,10.727c0,0,8.992-4.099,9.954-10.707"/>
			<path fill="none" stroke="#4B6842" stroke-miterlimit="10" d="M29.209-53.172c0,0-20.762,29.676-33.27,50.917"/>
			<line fill="none" stroke="#4B6842" stroke-miterlimit="10" x1="28.431" y1="-40.967" x2="15.314" y2="-32.759"/>
			<path fill="none" stroke="#4B6842" stroke-miterlimit="10" d="M13.893-45.387c0,0-7.885,20.954-5.787,23.594"/>
			<path fill="none" stroke="#4B6842" stroke-miterlimit="10" d="M15.502-19.835c0,0-6.335,7.584-12.961,6.761"/>
			<path fill="none" stroke="#4B6842" stroke-miterlimit="10" d="M-17.097-30.359c0,0,1.169,13.845,12.56,26.881"/>
		</g>
		<g clip-path="url(#SVGID_2_)">
			<path fill="#C7D26A" d="M238.407-48.243c0,0,45.194,23.436,39.687,77.606c0,0-11.03-0.598-22.228-16.149
				c0,0,2.659,42.634-24.077,60.926c0,0-7.683-8.6-6.303-22.241c0,0-24.448,32.547-60.956,41.665c0,0-10.331-29.777,11.089-67.618
				c0,0-10.775,10.693-27.528,7.464c0,0,0.787-32.786,33.216-47.26c0,0-23.723,2.329-26.089-8.644
				C155.218-22.493,185.659-63.708,238.407-48.243z"/>
			<path fill="none" stroke="#4B6842" stroke-miterlimit="10" d="M179.714,74.469c0,0,42.886-55.772,58.692-122.712"/>
			<path fill="none" stroke="#4B6842" stroke-miterlimit="10" d="M239.093,32.767c0,0,8.089-38.457-8.809-53.459"/>
			<path fill="none" stroke="#4B6842" stroke-miterlimit="10" d="M176.496,11.311c0,0,23.552-16.402,46.613-13.429"/>
			<path fill="none" stroke="#4B6842" stroke-miterlimit="10" d="M207.973,58.449c0,0,13.953-26.579,3.296-35.27"/>
		</g>
		<g clip-path="url(#SVGID_2_)">
			<g>
				<path fill="#A3C063" d="M91.666,174.531c0,0-21.163,24.437-64.92-0.389C26.746,174.142,66.405,151.188,91.666,174.531z"/>
				<path fill="#A3C063" d="M124.327,174.935c0,0-25.528,6.042-42.55-31.067C81.777,143.868,118.778,147.581,124.327,174.935z"/>
				<path fill="#A3C063" d="M165.581,165.244c0,0-25.528,6.042-42.55-31.066C123.031,134.178,160.031,137.891,165.581,165.244z"/>
				<path fill="#A3C063" d="M203.988,143.262c0,0-22.145,14.063-50.374-15.432C153.615,127.83,189.792,119.23,203.988,143.262z"/>
				<path fill="#A3C063" d="M204.514,145.961c0,0-25.438,6.408-23.435,47.185C181.079,193.146,212.2,172.793,204.514,145.961z"/>
				<path fill="#A3C063" d="M167.409,163.799c0,0-25.438,6.407-23.435,47.185C143.974,210.983,175.096,190.63,167.409,163.799z"/>
				<path fill="#A3C063" d="M122.183,174.898c0,0-25.438,6.408-23.435,47.185C98.748,222.083,129.869,201.73,122.183,174.898z"/>
				<path fill="none" stroke="#738D68" stroke-miterlimit="10" d="M224.744,125.026c0,0-54.437,61.153-133.078,49.505"/>
			</g>
		</g>
		<g clip-path="url(#SVGID_2_)">
			<path opacity="0.25" d="M976.378,119.665H179.097c-19.864,0-33.916,22.476-27.697,44.302l64.403,226.045
				c3.837,13.468,14.711,22.568,26.969,22.568h669.929c12.258,0,23.132-9.1,26.97-22.568l64.403-226.045
				C1010.294,142.14,996.242,119.665,976.378,119.665z"/>
			<path opacity="0.25" d="M927.201,413.951H298.81c-22.814,0-41.309,18.494-41.309,41.308v383.039
				c0,22.814,18.495,41.309,41.309,41.309h628.391c22.813,0,41.309-18.494,41.309-41.309V455.259
				C968.51,432.445,950.015,413.951,927.201,413.951z"/>
			<path fill="#C8C8CA" d="M994.692,354.648h-628.39c-22.814,0-41.309,18.494-41.309,41.308v383.039
				c0,22.814,18.494,41.309,41.309,41.309h628.39c22.814,0,41.309-18.494,41.309-41.309V395.956
				C1036.001,373.142,1017.507,354.648,994.692,354.648z"/>
			<path fill="#BCBCBC" d="M324.994,395.956v241.56h711.007v-241.56c0-1.168-0.061-2.322-0.155-3.466H325.149
				C325.054,393.634,324.994,394.788,324.994,395.956z"/>
			<path fill="#BCBCBC" d="M1079.138,61.732H281.857c-19.864,0-33.916,22.476-27.697,44.302l64.403,226.045
				c3.837,13.468,14.711,22.568,26.969,22.568h669.93c12.257,0,23.131-9.1,26.969-22.568l64.403-226.045
				C1113.054,84.208,1099.002,61.732,1079.138,61.732z"/>
			<path fill="#6D6D6D" d="M1041.947,81.778H315.709c-17.146,0-29.273,19.399-23.906,38.239l55.589,195.106
				c3.312,11.625,12.698,19.479,23.278,19.479h616.317c10.579,0,19.965-7.854,23.277-19.479l55.589-195.106
				C1071.221,101.177,1059.093,81.778,1041.947,81.778z"/>
			<path fill="#9E9E9E" d="M1004.436,400.257c0-4.268-3.736-7.767-8.286-7.767H371.602c-4.549,0-8.268,3.5-8.268,7.767v229.49
				c0,4.264,3.719,7.769,8.268,7.769h624.548c4.55,0,8.286-3.505,8.286-7.769V400.257z"/>
			<g>
				<g>
					<path fill="#2F3533" d="M414.24,445.447c0,1.113-0.906,2.021-2.016,2.021h-30.859c-1.115,0-2.019-0.908-2.019-2.021v-30.848
						c0-1.117,0.904-2.02,2.019-2.02h30.859c1.11,0,2.016,0.903,2.016,2.02V445.447z"/>
					<path fill="#2F3533" d="M478.193,487.934c0,1.123-0.893,2.031-2.02,2.031h-30.857c-1.112,0-2.008-0.908-2.008-2.031v-30.859
						c0-1.096,0.896-2.007,2.008-2.007h30.857c1.127,0,2.02,0.911,2.02,2.007V487.934z"/>
					<path fill="#2F3533" d="M488.258,530.432c0,1.118-0.906,2.008-2.017,2.008h-30.862c-1.095,0-2.017-0.89-2.017-2.008v-30.866
						c0-1.092,0.922-2.001,2.017-2.001h30.862c1.111,0,2.017,0.909,2.017,2.001V530.432z"/>
					<path fill="#2F3533" d="M467.451,572.921c0,1.104-0.903,2.016-2.008,2.016h-30.86c-1.102,0-2.01-0.912-2.01-2.016v-30.856
						c0-1.106,0.908-2.022,2.01-2.022h30.86c1.105,0,2.008,0.916,2.008,2.022V572.921z"/>
					<path fill="#2F3533" d="M414.24,620.775c0,1.115-0.906,2.018-2.016,2.018h-30.859c-1.115,0-2.019-0.902-2.019-2.018v-36.229
						c0-1.089,0.904-2.015,2.019-2.015h30.859c1.11,0,2.016,0.926,2.016,2.015V620.775z"/>
					<path fill="#2F3533" d="M456.605,620.775c0,1.115-0.903,2.018-2.02,2.018h-30.847c-1.104,0-2.014-0.902-2.014-2.018v-36.229
						c0-1.089,0.909-2.015,2.014-2.015h30.847c1.117,0,2.02,0.926,2.02,2.015V620.775z"/>
					<path fill="#2F3533" d="M498.992,620.775c0,1.115-0.911,2.018-2.021,2.018h-30.859c-1.108,0-2.011-0.902-2.011-2.018v-36.229
						c0-1.089,0.903-2.015,2.011-2.015h30.859c1.11,0,2.021,0.926,2.021,2.015V620.775z"/>
					<path fill="#2F3533" d="M860.951,620.775c0,1.115-0.922,2.018-2.029,2.018H828.06c-1.102,0-2.006-0.902-2.006-2.018v-36.229
						c0-1.089,0.904-2.015,2.006-2.015h30.862c1.107,0,2.029,0.926,2.029,2.015V620.775z"/>
					<path fill="#2F3533" d="M903.426,620.775c0,1.115-0.906,2.018-2.016,2.018h-30.84c-1.128,0-2.041-0.902-2.041-2.018v-16.1
						c0-1.102,0.913-2.018,2.041-2.018h30.84c1.109,0,2.016,0.916,2.016,2.018V620.775z"/>
					<path fill="#2F3533" d="M988.407,620.775c0,1.115-0.911,2.018-2.022,2.018h-30.848c-1.107,0-2.028-0.902-2.028-2.018v-16.1
						c0-1.102,0.921-2.018,2.028-2.018h30.848c1.111,0,2.022,0.916,2.022,2.018V620.775z"/>
					<path fill="#2F3533" d="M552.429,620.775c0,1.115-0.905,2.018-2.001,2.018h-41.941c-1.107,0-2.006-0.902-2.006-2.018v-36.229
						c0-1.089,0.899-2.015,2.006-2.015h41.941c1.096,0,2.001,0.926,2.001,2.015V620.775z"/>
					<path fill="#2F3533" d="M818.449,620.775c0,1.115-0.899,2.018-2.018,2.018h-41.927c-1.099,0-2.023-0.902-2.023-2.018v-36.229
						c0-1.089,0.925-2.015,2.023-2.015h41.927c1.118,0,2.018,0.926,2.018,2.015V620.775z"/>
					<path fill="#2F3533" d="M764.893,620.775c0,1.115-0.916,2.018-2.033,2.018H562.049c-1.096,0-2.024-0.902-2.024-2.018v-36.229
						c0-1.089,0.928-2.015,2.024-2.015h200.811c1.117,0,2.033,0.926,2.033,2.015V620.775z"/>
					<path fill="#2F3533" d="M509.939,572.921c0,1.104-0.896,2.016-2.008,2.016H477.07c-1.092,0-2.008-0.912-2.008-2.016v-30.856
						c0-1.106,0.917-2.022,2.008-2.022h30.861c1.112,0,2.008,0.916,2.008,2.022V572.921z"/>
					<path fill="#2F3533" d="M552.429,572.921c0,1.104-0.905,2.016-2.001,2.016h-30.86c-1.111,0-2.017-0.912-2.017-2.016v-30.856
						c0-1.106,0.906-2.022,2.017-2.022h30.86c1.096,0,2.001,0.916,2.001,2.022V572.921z"/>
					<path fill="#2F3533" d="M594.925,572.921c0,1.104-0.903,2.016-2.022,2.016h-30.854c-1.096,0-2.024-0.912-2.024-2.016v-30.856
						c0-1.106,0.928-2.022,2.024-2.022h30.854c1.119,0,2.022,0.916,2.022,2.022V572.921z"/>
					<path fill="#2F3533" d="M637.411,572.921c0,1.104-0.911,2.016-2.007,2.016h-30.852c-1.109,0-2.025-0.912-2.025-2.016v-30.856
						c0-1.106,0.917-2.022,2.025-2.022h30.852c1.096,0,2.007,0.916,2.007,2.022V572.921z"/>
					<path fill="#2F3533" d="M679.904,572.921c0,1.104-0.906,2.016-2.007,2.016h-30.862c-1.102,0-2.007-0.912-2.007-2.016v-30.856
						c0-1.106,0.905-2.022,2.007-2.022h30.862c1.102,0,2.007,0.916,2.007,2.022V572.921z"/>
					<path fill="#2F3533" d="M722.397,572.921c0,1.104-0.9,2.016-2.011,2.016h-30.86c-1.117,0-2.022-0.912-2.022-2.016v-30.856
						c0-1.106,0.905-2.022,2.022-2.022h30.86c1.11,0,2.011,0.916,2.011,2.022V572.921z"/>
					<path fill="#2F3533" d="M764.893,572.921c0,1.104-0.916,2.016-2.033,2.016h-30.849c-1.104,0-2.007-0.912-2.007-2.016v-30.856
						c0-1.106,0.903-2.022,2.007-2.022h30.849c1.117,0,2.033,0.916,2.033,2.022V572.921z"/>
					<path fill="#2F3533" d="M807.38,572.921c0,1.104-0.908,2.016-2.021,2.016h-30.854c-1.099,0-2.023-0.912-2.023-2.016v-30.856
						c0-1.106,0.925-2.022,2.023-2.022h30.854c1.112,0,2.021,0.916,2.021,2.022V572.921z"/>
					<path fill="#2F3533" d="M849.864,572.921c0,1.104-0.89,2.016-2.01,2.016h-30.859c-1.114,0-2.016-0.912-2.016-2.016v-30.856
						c0-1.106,0.901-2.022,2.016-2.022h30.859c1.12,0,2.01,0.916,2.01,2.022V572.921z"/>
					<path fill="#2F3533" d="M892.356,572.921c0,1.104-0.911,2.016-2.018,2.016h-30.85c-1.111,0-2.024-0.912-2.024-2.016v-30.856
						c0-1.106,0.913-2.022,2.024-2.022h30.85c1.106,0,2.018,0.916,2.018,2.022V572.921z"/>
					<path fill="#2F3533" d="M988.065,572.921c0,1.104-0.905,2.016-2.015,2.016h-84.077c-1.108,0-2.017-0.912-2.017-2.016v-30.856
						c0-1.106,0.908-2.022,2.017-2.022h84.077c1.109,0,2.015,0.916,2.015,2.022V572.921z"/>
					<path fill="#2F3533" d="M530.734,530.432c0,1.118-0.886,2.008-1.997,2.008H497.86c-1.094,0-2-0.89-2-2.008v-30.866
						c0-1.092,0.906-2.001,2-2.001h30.877c1.111,0,1.997,0.909,1.997,2.001V530.432z"/>
					<path fill="#2F3533" d="M573.234,530.432c0,1.118-0.908,2.008-2.018,2.008h-30.861c-1.102,0-1.999-0.89-1.999-2.008v-30.866
						c0-1.092,0.896-2.001,1.999-2.001h30.861c1.11,0,2.018,0.909,2.018,2.001V530.432z"/>
					<path fill="#2F3533" d="M615.713,530.432c0,1.118-0.886,2.008-2,2.008h-30.866c-1.108,0-2.008-0.89-2.008-2.008v-30.866
						c0-1.092,0.9-2.001,2.008-2.001h30.866c1.114,0,2,0.909,2,2.001V530.432z"/>
					<path fill="#2F3533" d="M658.213,530.432c0,1.118-0.909,2.008-2.007,2.008h-30.874c-1.099,0-2-0.89-2-2.008v-30.866
						c0-1.092,0.901-2.001,2-2.001h30.874c1.099,0,2.007,0.909,2.007,2.001V530.432z"/>
					<path fill="#2F3533" d="M700.705,530.432c0,1.118-0.913,2.008-2.015,2.008h-30.858c-1.094,0-2.022-0.89-2.022-2.008v-30.866
						c0-1.092,0.928-2.001,2.022-2.001h30.858c1.102,0,2.015,0.909,2.015,2.001V530.432z"/>
					<path fill="#2F3533" d="M743.189,530.432c0,1.118-0.905,2.008-2.012,2.008h-30.853c-1.111,0-2.015-0.89-2.015-2.008v-30.866
						c0-1.092,0.903-2.001,2.015-2.001h30.853c1.106,0,2.012,0.909,2.012,2.001V530.432z"/>
					<path fill="#2F3533" d="M785.675,530.432c0,1.118-0.894,2.008-2.008,2.008h-30.859c-1.108,0-2.008-0.89-2.008-2.008v-30.866
						c0-1.092,0.899-2.001,2.008-2.001h30.859c1.114,0,2.008,0.909,2.008,2.001V530.432z"/>
					<path fill="#2F3533" d="M828.174,530.432c0,1.118-0.913,2.008-2.012,2.008H795.3c-1.104,0-2.01-0.89-2.01-2.008v-30.866
						c0-1.092,0.905-2.001,2.01-2.001h30.862c1.099,0,2.012,0.909,2.012,2.001V530.432z"/>
					<path fill="#2F3533" d="M870.666,530.432c0,1.118-0.906,2.008-2.012,2.008h-30.87c-1.111,0-2.008-0.89-2.008-2.008v-30.866
						c0-1.092,0.896-2.001,2.008-2.001h30.87c1.105,0,2.012,0.909,2.012,2.001V530.432z"/>
					<path fill="#2F3533" d="M913.147,530.432c0,1.118-0.903,2.008-2.009,2.008H880.29c-1.12,0-2.024-0.89-2.024-2.008v-30.866
						c0-1.092,0.904-2.001,2.024-2.001h30.849c1.105,0,2.009,0.909,2.009,2.001V530.432z"/>
					<path fill="#2F3533" d="M955.638,530.432c0,1.118-0.904,2.008-2.007,2.008H922.76c-1.104,0-1.997-0.89-1.997-2.008v-30.866
						c0-1.092,0.893-2.001,1.997-2.001h30.871c1.103,0,2.007,0.909,2.007,2.001V530.432z"/>
					<path fill="#2F3533" d="M520.684,487.934c0,1.123-0.907,2.031-2.021,2.031h-30.857c-1.105,0-2.02-0.908-2.02-2.031v-30.859
						c0-1.096,0.915-2.007,2.02-2.007h30.857c1.114,0,2.021,0.911,2.021,2.007V487.934z"/>
					<path fill="#2F3533" d="M563.172,487.934c0,1.123-0.905,2.031-2.02,2.031h-30.86c-1.104,0-2.007-0.908-2.007-2.031v-30.859
						c0-1.096,0.903-2.007,2.007-2.007h30.86c1.114,0,2.02,0.911,2.02,2.007V487.934z"/>
					<path fill="#2F3533" d="M605.66,487.934c0,1.123-0.903,2.031-2.018,2.031h-30.859c-1.096,0-1.998-0.908-1.998-2.031v-30.859
						c0-1.096,0.902-2.007,1.998-2.007h30.859c1.115,0,2.018,0.911,2.018,2.007V487.934z"/>
					<path fill="#2F3533" d="M648.14,487.934c0,1.123-0.906,2.031-2.003,2.031h-30.858c-1.111,0-2.017-0.908-2.017-2.031v-30.859
						c0-1.096,0.906-2.007,2.017-2.007h30.858c1.097,0,2.003,0.911,2.003,2.007V487.934z"/>
					<path fill="#2F3533" d="M690.636,487.934c0,1.123-0.9,2.031-2.02,2.031h-30.854c-1.104,0-2.005-0.908-2.005-2.031v-30.859
						c0-1.096,0.9-2.007,2.005-2.007h30.854c1.119,0,2.02,0.911,2.02,2.007V487.934z"/>
					<path fill="#2F3533" d="M733.119,487.934c0,1.123-0.892,2.031-2.003,2.031h-30.863c-1.112,0-2.016-0.908-2.016-2.031v-30.859
						c0-1.096,0.904-2.007,2.016-2.007h30.863c1.111,0,2.003,0.911,2.003,2.007V487.934z"/>
					<path fill="#2F3533" d="M775.613,487.934c0,1.123-0.894,2.031-2.009,2.031h-30.868c-1.096,0-2-0.908-2-2.031v-30.859
						c0-1.096,0.904-2.007,2-2.007h30.868c1.115,0,2.009,0.911,2.009,2.007V487.934z"/>
					<path fill="#2F3533" d="M818.112,487.934c0,1.123-0.905,2.031-2.023,2.031H785.23c-1.107,0-2.012-0.908-2.012-2.031v-30.859
						c0-1.096,0.904-2.007,2.012-2.007h30.858c1.118,0,2.023,0.911,2.023,2.007V487.934z"/>
					<path fill="#2F3533" d="M860.592,487.934c0,1.123-0.905,2.031-2.001,2.031h-30.862c-1.113,0-2.011-0.908-2.011-2.031v-30.859
						c0-1.096,0.897-2.007,2.011-2.007h30.862c1.096,0,2.001,0.911,2.001,2.007V487.934z"/>
					<path fill="#2F3533" d="M903.09,487.934c0,1.123-0.904,2.031-2.024,2.031H870.21c-1.092,0-2.009-0.908-2.009-2.031v-30.859
						c0-1.096,0.917-2.007,2.009-2.007h30.855c1.12,0,2.024,0.911,2.024,2.007V487.934z"/>
					<path fill="#2F3533" d="M945.574,487.934c0,1.123-0.904,2.031-2.006,2.031h-30.861c-1.111,0-2.017-0.908-2.017-2.031v-30.859
						c0-1.096,0.905-2.007,2.017-2.007h30.861c1.102,0,2.006,0.911,2.006,2.007V487.934z"/>
					<path fill="#2F3533" d="M435.704,487.934c0,1.123-0.903,2.031-2.017,2.031h-52.323c-1.115,0-2.019-0.908-2.019-2.031v-30.859
						c0-1.096,0.904-2.007,2.019-2.007h52.323c1.114,0,2.017,0.911,2.017,2.007V487.934z"/>
					<path fill="#2F3533" d="M988.065,445.447c0,1.113-0.905,2.021-2.015,2.021h-52.33c-1.092,0-2.008-0.908-2.008-2.021v-30.848
						c0-1.117,0.916-2.02,2.008-2.02h52.33c1.109,0,2.015,0.903,2.015,2.02V445.447z"/>
					<path fill="#2F3533" d="M445.758,530.432c0,1.118-0.895,2.008-2.017,2.008h-62.377c-1.115,0-2.019-0.89-2.019-2.008v-30.866
						c0-1.092,0.904-2.001,2.019-2.001h62.377c1.122,0,2.017,0.909,2.017,2.001V530.432z"/>
					<path fill="#2F3533" d="M424.973,572.921c0,1.104-0.906,2.016-2.018,2.016h-41.591c-1.115,0-2.019-0.912-2.019-2.016v-30.856
						c0-1.106,0.904-2.022,2.019-2.022h41.591c1.112,0,2.018,0.916,2.018,2.022V572.921z"/>
					<path fill="#2F3533" d="M456.722,445.447c0,1.113-0.898,2.021-2.023,2.021h-30.84c-1.111,0-2.018-0.908-2.018-2.021v-30.848
						c0-1.117,0.907-2.02,2.018-2.02h30.84c1.125,0,2.023,0.903,2.023,2.02V445.447z"/>
					<path fill="#2F3533" d="M499.215,445.447c0,1.113-0.903,2.021-2.013,2.021h-30.864c-1.098,0-2-0.908-2-2.021v-30.848
						c0-1.117,0.901-2.02,2-2.02h30.864c1.11,0,2.013,0.903,2.013,2.02V445.447z"/>
					<path fill="#2F3533" d="M541.719,445.447c0,1.113-0.926,2.021-2.035,2.021h-30.859c-1.105,0-2.007-0.908-2.007-2.021v-30.848
						c0-1.117,0.902-2.02,2.007-2.02h30.859c1.109,0,2.035,0.903,2.035,2.02V445.447z"/>
					<path fill="#2F3533" d="M584.195,445.447c0,1.113-0.909,2.021-2.021,2.021h-30.86c-1.104,0-2.017-0.908-2.017-2.021v-30.848
						c0-1.117,0.913-2.02,2.017-2.02h30.86c1.112,0,2.021,0.903,2.021,2.02V445.447z"/>
					<path fill="#2F3533" d="M626.669,445.447c0,1.113-0.889,2.021-2.005,2.021h-30.859c-1.105,0-2.011-0.908-2.011-2.021v-30.848
						c0-1.117,0.905-2.02,2.011-2.02h30.859c1.116,0,2.005,0.903,2.005,2.02V445.447z"/>
					<path fill="#2F3533" d="M669.173,445.447c0,1.113-0.907,2.021-2.018,2.021h-30.84c-1.118,0-2.021-0.908-2.021-2.021v-30.848
						c0-1.117,0.903-2.02,2.021-2.02h30.84c1.111,0,2.018,0.903,2.018,2.02V445.447z"/>
					<path fill="#2F3533" d="M711.648,445.447c0,1.113-0.883,2.021-2.003,2.021h-30.85c-1.119,0-2.022-0.908-2.022-2.021v-30.848
						c0-1.117,0.903-2.02,2.022-2.02h30.85c1.12,0,2.003,0.903,2.003,2.02V445.447z"/>
					<path fill="#2F3533" d="M754.147,445.447c0,1.113-0.903,2.021-2.022,2.021h-30.857c-1.11,0-2.014-0.908-2.014-2.021v-30.848
						c0-1.117,0.903-2.02,2.014-2.02h30.857c1.119,0,2.022,0.903,2.022,2.02V445.447z"/>
					<path fill="#2F3533" d="M796.627,445.447c0,1.113-0.892,2.021-1.998,2.021h-30.856c-1.119,0-2.021-0.908-2.021-2.021v-30.848
						c0-1.117,0.901-2.02,2.021-2.02h30.856c1.106,0,1.998,0.903,1.998,2.02V445.447z"/>
					<path fill="#2F3533" d="M839.132,445.447c0,1.113-0.912,2.021-2.008,2.021h-30.87c-1.101,0-2.005-0.908-2.005-2.021v-30.848
						c0-1.117,0.904-2.02,2.005-2.02h30.87c1.096,0,2.008,0.903,2.008,2.02V445.447z"/>
					<path fill="#2F3533" d="M881.621,445.447c0,1.113-0.902,2.021-2.016,2.021h-30.857c-1.117,0-2.023-0.908-2.023-2.021v-30.848
						c0-1.117,0.906-2.02,2.023-2.02h30.857c1.113,0,2.016,0.903,2.016,2.02V445.447z"/>
					<path fill="#2F3533" d="M924.103,445.447c0,1.113-0.896,2.021-2.002,2.021h-30.877c-1.097,0-2-0.908-2-2.021v-30.848
						c0-1.117,0.903-2.02,2-2.02h30.877c1.105,0,2.002,0.903,2.002,2.02V445.447z"/>
					<g>
						<path fill="#2F3533" d="M911.029,603.803v16.973c0,0.521,0.197,1.048,0.584,1.425c0.397,0.397,0.921,0.593,1.43,0.593h30.862
							c0.512,0,1.019-0.195,1.421-0.593c0.395-0.377,0.592-0.903,0.592-1.425v-16.973H911.029z"/>
						<path fill="#2F3533" d="M945.918,601.525v-16.979c0-0.502-0.197-1.023-0.592-1.409c-0.402-0.398-0.909-0.605-1.421-0.605
							h-30.862c-0.509,0-1.032,0.207-1.43,0.605c-0.387,0.386-0.584,0.907-0.584,1.409v16.979H945.918z"/>
					</g>
					<path fill="#2F3533" d="M955.187,455.068c-0.509,0-1.019,0.186-1.417,0.592c-0.393,0.391-0.578,0.896-0.578,1.415v30.859
						c0,0.519,0.186,1.039,0.578,1.438c0.398,0.384,0.908,0.593,1.417,0.593h8.057v40.467c0,0.521,0.206,1.04,0.595,1.425
						c0.395,0.394,0.903,0.583,1.424,0.583h20.789c0.521,0,1.029-0.189,1.429-0.583c0.398-0.385,0.596-0.903,0.596-1.425v-73.356
						c0-0.519-0.197-1.024-0.596-1.415c-0.399-0.406-0.907-0.592-1.429-0.592H955.187z"/>
				</g>
			</g>
			<path fill="#A5A5A5" d="M326.718,790.812c5.084,17.055,20.877,29.492,39.584,29.492h628.39c18.707,0,34.501-12.438,39.584-29.492
				H326.718z"/>
			<path fill="#BCBCBC" d="M794.484,647.268H559.063c-7.242,0-13.112,5.871-13.112,13.112v116.764
				c0,7.241,5.871,13.112,13.112,13.112h235.421c7.241,0,13.111-5.871,13.111-13.112V660.38
				C807.596,653.139,801.726,647.268,794.484,647.268z"/>
			<path fill="#9E9E9E" d="M758.208,381.044H588.186c-1.835,0-3.324-1.488-3.324-3.324v-6.706c0-1.835,1.488-3.324,3.324-3.324
				h170.022c1.836,0,3.324,1.488,3.324,3.324v6.706C761.532,379.556,760.044,381.044,758.208,381.044z"/>
			<path fill="#494949" d="M315.709,81.778c-17.146,0-29.273,19.399-23.906,38.239l55.589,195.106
				c1.967,6.905,6.087,12.462,11.318,15.851l648.813-249.196H315.709z"/>
		</g>
		<g clip-path="url(#SVGID_2_)">
			<path fill="#D39089" d="M460.907,710.025c0,0,19.09-49.774,60.159-59.817c0,0,15.601-17.695,24.989-21.837
				c9.388-4.143,14.184-28.433,42.438-21.551c0,0-23.439,37.793-28.668,68.28c-2.3,13.411-34.835,86.773-105.606,95.763
				L460.907,710.025z"/>
			<g>
				<path opacity="0.16" d="M546.967,641.675c-0.218,0.231-0.445,0.454-0.667,0.683c-0.454,0.543-0.909,1.085-1.376,1.61
					C545.604,643.204,546.286,642.439,546.967,641.675z"/>
				<path opacity="0.16" d="M571.561,608.215c0.317-0.554,0.607-1.172,0.854-1.814c-14.609,3.641-19.128,18.779-26.361,21.971
					c-9.388,4.142-24.989,21.837-24.989,21.837c-5.185,1.268-10.019,3.171-14.509,5.525c-3.543,6.894-5.926,14.383-7.466,21.994
					c-2.014,9.954-2.663,20.183-1.923,30.312c6.738-3.008,10.996-9.794,13.732-16.646s4.384-14.173,7.971-20.62
					c6.429-11.558,18.209-18.919,27.429-28.415c4.225-5.057,7.886-10.823,11.799-16.076
					C562.478,620.404,567.918,614.566,571.561,608.215z"/>
			</g>
			<path fill="#D39089" d="M426.694,620.588c0,0-4.044-23.41-8.062-34.775c0,0,4.224-26.851,0.74-38.396
				c0,0,10.917-28.702-8.464-41.66c0,0-9.648,19.534-15.531,31.445c-5.883,11.911-5.719,39.9-5.272,46.674
				c0.663,10.058,1.626,31.904,3.863,47.974C395.138,640.258,424.531,633.765,426.694,620.588z"/>
			<g>
				<path opacity="0.16" d="M423.07,602.357c-1.327-5.949-2.884-12.147-4.438-16.545c0,0,4.224-26.851,0.739-38.396
					c0,0,8.358-21.974-2.535-36.148c1.09,8.677,1.569,22.797-5.167,30.306c-8.288,9.239,5.564,55.931,5.507,86.125
					C418.872,620.456,420.934,611.737,423.07,602.357z"/>
				<path opacity="0.16" d="M417.089,631.459c0.056-1.222,0.085-2.475,0.088-3.76c-0.344,1.467-0.671,2.871-0.982,4.21
					C416.494,631.762,416.796,631.615,417.089,631.459z"/>
			</g>
			<path fill="#D39089" d="M459.417,625.254c0,0,0.757-27.166-1.238-40.802c0,0,11.066-29.229,9.725-42.95
				c0,0,19.195-29.853-0.11-48.619c0,0-15.616,19.834-25.139,31.929c-9.522,12.094-15.803,43.557-16.855,51.26
				c-1.562,11.438-5.502,36.177-6.643,54.708C418.561,640.475,453.883,639.579,459.417,625.254z"/>
			<path opacity="0.16" d="M459.417,625.254c0,0,0.757-27.165-1.238-40.801c0,0,11.066-29.23,9.725-42.951
				c0,0,16.65-25.914,3.308-44.632c-0.772,1.11-1.361,2.483-1.682,3.964c-1.485,6.867-1.461,13.788-3.548,20.643
				c-2.093,6.872-5.075,13.475-8.892,19.562c-3.981,6.351-8.938,12.387-10.542,19.708c-1.21,5.526-0.379,11.271-0.606,16.924
				c-0.318,7.967-2.738,15.716-3.348,23.666c-0.867,11.303,1.94,22.479,5.165,33.404
				C453.188,632.792,457.714,629.661,459.417,625.254z"/>
			<path fill="#D39089" d="M491.788,626.632c0,0,0.794-31.358-1.383-47.14c0,0,11.969-33.565,10.502-49.434
				c0,0,20.781-34.145-0.167-56.148c0,0-16.912,22.638-27.223,36.44c-10.312,13.803-17.091,50.029-18.223,58.906
				c-1.682,13.183-5.93,41.685-7.148,63.064C447.508,643.508,485.803,643.08,491.788,626.632z"/>
			<path opacity="0.16" d="M496.551,521.442c-1.147,0.94-2.364,1.88-3.052,3.193c-0.616,1.177-0.747,2.537-0.898,3.855
				c-1.035,9.013-3.556,17.853-7.43,26.056c-4.296,9.093-10.43,18.705-7.777,28.406c0.529,1.933,1.396,3.758,1.985,5.673
				c0.78,2.53,1.065,5.183,1.301,7.819c1.199,13.414,1.191,26.933,0.008,40.347c5.195-2.189,9.421-5.544,11.102-10.16
				c0,0,0.794-31.358-1.383-47.14c0,0,11.969-33.565,10.502-49.434c0,0,6.325-10.412,8.475-23.438
				C505.911,512.175,501.74,517.188,496.551,521.442z"/>
			<path fill="#D39089" d="M392.644,766.911c0,0,54.564,13.338,89.728,0c0,0,35.163-72.752,38.801-135.804
				c0,0-72.752-13.338-128.528-4.851C392.644,626.257,385.369,728.109,392.644,766.911z"/>
			<path fill="#D39089" d="M521.293,634.816c0,0,8.855-27.28,10.949-41.681c0,0,19.675-26.302,22.442-40.594
				c0,0,27.906-24.513,14.399-49.262c0,0-21.375,15.434-34.409,24.845c-13.033,9.411-28.639,39.398-31.978,46.885
				c-4.959,11.116-16.242,34.993-22.9,53.417C476.314,638.065,511.542,647.675,521.293,634.816z"/>
			<path fill="#D39089" d="M390.973,754.632c0,0-89.721,153.663-136.924,268.157h180.78c0,0,55.238-158.685,55.238-268.157
				C490.067,754.632,433.489,726.51,390.973,754.632z"/>
			<path fill="#FFB35D" d="M342.25,845.615c0,0,81.726-15.795,132.348,36.303c0,0,11.453,2.886,15.47-4.646
				c4.018-7.533-46.199-72.312-143.118-52.226C346.949,825.046,327.005,834.045,342.25,845.615z"/>
			<path fill="#FFB35D" d="M358.668,813.921c0,0,71.958-18.598,122.58,33.5c0,0,11.33,4.409,14.343-11.327
				c1.605-8.385-35.305-62.829-132.223-42.742C363.368,793.352,343.423,802.352,358.668,813.921z"/>
			<path fill="#B8C559" d="M273.13,935.021c0,0,107.464-61.265,206.893,30.13l-32.139,61.265H239.987L273.13,935.021z"/>
			<path fill="#7E9D64" d="M469.03,986.106l10.993-20.956c-99.429-91.395-206.893-30.13-206.893-30.13l-7.834,21.604
				C299.058,949.881,401.445,935.08,469.03,986.106z"/>
			<path fill="#EFCCCA" d="M584.216,606c-2.971,0.71-7.192,3.411-11.801,10.599c0,0,3.618,3.562,6.113,8.132
				c5.481-10.683,9.964-17.91,9.964-17.91C586.998,606.456,585.583,606.197,584.216,606z"/>
			<path fill="#EFCCCA" d="M555.47,525.996c14.623-3.589,13.614-22.716,13.614-22.716s-11.322,8.176-22.511,16.254
				C552.074,522.006,555.47,525.996,555.47,525.996z"/>
			<path fill="#EFCCCA" d="M495.543,505.757c16.096-14.856,5.197-31.847,5.197-31.847s-9.068,12.139-17.974,24.059
				C488.93,500.444,495.543,505.757,495.543,505.757z"/>
			<path fill="#EFCCCA" d="M462.104,522.606c13.954-16.944,5.69-29.724,5.69-29.724s-9.436,11.985-18.111,23.003
				C457.935,518.307,462.104,522.606,462.104,522.606z"/>
			<path fill="#EFCCCA" d="M409.026,531.577c9.317-11.961,1.882-25.82,1.882-25.82s-5.56,11.257-10.812,21.891
				C404.687,529.111,409.026,531.577,409.026,531.577z"/>
		</g>
		<g clip-path="url(#SVGID_2_)">
			<path fill="#D39089" d="M910.289,736.711c0,0-25.192-36.729-67.123-31.311c0,0-10.756-6.123-33.948-0.8
				c-10.001,2.295-32.743-26.086-62.411-3.122c0,0,38.171,28.127,54.026,54.688c6.975,11.685,68.34,51.988,137.602,34.894
				L910.289,736.711z"/>
			<path opacity="0.16" d="M865.428,728.324c-2.517-8.567-6.802-16.5-12.368-23.447c-3.185-0.075-6.482,0.082-9.894,0.523
				c0,0-10.756-6.123-33.948-0.8c-8.562,1.965-26.466-18.551-50.058-10.084c4.019,0.974,8.632,1.44,10.668,2.137
				c9.727,3.323,18.687,8.952,25.741,16.444c2.073,2.201,4.214,4.688,7.178,5.287c1.852,0.374,3.76-0.059,5.599-0.489
				c10.204-2.392,21.015-4.78,30.998-1.587C848.5,719.237,855.969,726.608,865.428,728.324z"/>
			<path fill="#D39089" d="M913.331,647.027c0,0-14.672-18.685-20.42-29.281c0,0-22.765-14.851-29.002-25.171
				c0,0-28.624-11.121-25.262-34.191c0,0,20.966,5.922,33.75,9.533c12.785,3.611,33.457,22.481,38.187,27.351
				c7.023,7.23,22.599,22.58,33.031,35.006C949.074,636.774,924.563,654.249,913.331,647.027z"/>
			<path opacity="0.16" d="M894.655,603.606c-7.411-10.624-19.567-16.125-30.875-21.567c-6.633-3.192-15.778-10.908-23.963-11.708
				c5.393,14.973,24.092,22.244,24.092,22.244c6.237,10.32,29.002,25.171,29.002,25.171c2.491,4.592,6.657,10.702,10.58,16.152
				c2.053,0.963,4.116,1.903,6.201,2.797c-2.724-6.496-5.446-12.993-8.17-19.49C899.556,612.513,897.566,607.779,894.655,603.606z"
				/>
			<path fill="#D39089" d="M881.765,660.805c0,0-17.103-21.119-23.801-33.163c0,0-26.546-16.497-33.815-28.211
				c0,0-33.382-12.054-29.445-38.688c0,0,24.453,6.27,39.363,10.093c14.911,3.823,39.012,25.001,44.526,30.481
				c8.188,8.137,26.347,25.396,38.509,39.423C923.465,648.078,894.862,668.823,881.765,660.805z"/>
			<path opacity="0.16" d="M881.354,634.864c-4.849-6.701-9.697-13.402-14.546-20.104c-1.369-1.893-2.792-3.835-4.787-5.048
				c-3.258-1.98-7.4-1.66-10.995-2.93c-3.217-1.136-5.83-3.479-8.592-5.481c-8.496-6.16-18.742-9.283-28.475-13.209
				c-4.48-1.808-10.78-7.16-15.463-8.563c8.17,13.585,25.651,19.901,25.651,19.901c7.27,11.714,33.815,28.211,33.815,28.211
				c4.164,7.488,12.349,18.481,17.946,25.729c3.488,1.461,7,2.806,10.523,4.016c2.373,0.815,5.817,1.093,6.594-1.292
				c0.343-1.054-0.071-2.19-0.513-3.206C889.689,646.396,885.505,640.602,881.354,634.864z"/>
			<path fill="#D39089" d="M857.178,682.234c0,0-21.849-22.509-30.95-35.584c0,0-31.557-16.553-41.239-29.21
				c0,0-38.428-11.004-37.952-41.381c0,0,27.779,5.17,44.719,8.322c16.938,3.152,46.486,25.181,53.338,30.937
				c10.175,8.548,32.625,26.615,48.019,41.503C901.165,664.61,872.73,690.264,857.178,682.234z"/>
			<path opacity="0.16" d="M805.547,623.946c-2.829-3.036-4.901-6.804-8.184-9.343c-4.905-3.793-11.523-4.163-17.607-5.357
				c-6.729-1.32-13.198-3.875-19.062-7.425c-1.926-1.166-4.696-3.9-7.514-5.879c10.744,15.463,31.808,21.498,31.808,21.498
				c9.683,12.657,41.24,29.21,41.24,29.21c7.667,11.016,24.381,28.725,29.456,34.031c0.052,0.011,0.104,0.022,0.155,0.033
				c-10.11-10.132-10.158-27.273-20.148-37.524C827.323,634.603,813.721,632.72,805.547,623.946z"/>
			<path fill="#D39089" d="M834.686,701.332c0,0-21.324-19.182-30.347-30.6c0,0-30.199-12.918-39.75-23.904
				c0,0-36.43-7.248-37.128-35.434c0,0,26.23,2.658,42.225,4.279c15.994,1.622,44.516,19.768,51.154,24.576
				c9.858,7.14,31.579,22.16,46.566,34.774C875.248,681.625,849.563,707.58,834.686,701.332z"/>
			<path fill="#D39089" d="M994.455,765.202c0,0-46.102,32.09-83.709,32.307c0,0-59-55.212-85.096-112.726
				c0,0,63.07-38.637,118.162-50.801C943.812,633.982,987.272,726.385,994.455,765.202z"/>
			<path fill="#D39089" d="M993.36,751.256c0,0,154.84,175.565,236.205,268.93l-171.271,57.859c0,0-123.778-191.359-158.815-295.073
				C899.479,782.972,944.08,738.222,993.36,751.256z"/>
			<path fill="#B8C559" d="M1161.578,881.006c0,0-121.419-23.648-186.367,94.762l70.714,106.456l196.962-66.538L1161.578,881.006z"
				/>
			<path fill="#7E9D64" d="M1171.715,897.797l-10.137-16.791c0,0-121.419-23.648-186.367,94.762l11.582,17.437
				C1035.738,929.875,1124.211,906.213,1171.715,897.797z"/>
			<path opacity="0.16" d="M804.339,670.732c3.593,4.547,9.136,10.322,14.506,15.63c-5.015-10.801-14.954-19.381-24.399-27.134
				c-3.792-3.114-7.585-6.228-11.378-9.342c-1.511-1.24-3.108-2.522-5.028-2.889c-1.953-0.372-3.938,0.259-5.864,0.75
				c-1.608,0.409-3.885,0.42-6.411,0.331C776.383,658.771,804.339,670.732,804.339,670.732z"/>
			<path fill="#EFCCCA" d="M775.67,703.906c-16.498-10.663-27.336-3.542-28.711-2.542c-0.052,0.039-0.102,0.075-0.153,0.114
				c0,0,7.675,5.656,17.569,14.288C768.108,709.515,775.67,703.906,775.67,703.906z"/>
			<path fill="#EFCCCA" d="M755.742,625.385c0,0,0.26-6.525,2.069-10.914c-11.616-1.178-24.025-2.436-28.561-2.896
				C730.588,614.572,736.423,627.402,755.742,625.385z"/>
			<path fill="#EFCCCA" d="M775.075,593.115c0,0,0.302-3.823,6.121-10.698c-15.93-2.965-34.16-6.357-34.16-6.357
				S748.294,593.329,775.075,593.115z"/>
			<path fill="#EFCCCA" d="M820.24,579.555c0,0,0.749-4.562,5.653-10.815c-14.273-3.659-31.19-7.997-31.19-7.997
				S796.385,574.713,820.24,579.555z"/>
			<path fill="#EFCCCA" d="M859.304,573.391l5.595-7.592c-12.131-3.427-26.251-7.415-26.251-7.415S841.817,567.883,859.304,573.391z
				"/>
		</g>
		<g clip-path="url(#SVGID_2_)">
			<circle opacity="0.25" cx="170.994" cy="536.811" r="112.481"/>
			<circle fill="#DDDDDD" cx="180.481" cy="522.146" r="112.481"/>
			<circle opacity="0.25" cx="171.869" cy="530.016" r="95.057"/>
			<circle fill="#FFFFFF" cx="180.481" cy="522.146" r="95.057"/>
			<circle fill="#DDDDDD" cx="180.481" cy="522.146" r="81.762"/>
			<circle fill="#633C21" cx="180.481" cy="522.146" r="71.805"/>
			<path fill="#472B18" d="M204.126,589.946c17.207-6.001,30.666-17.897,38.938-32.629c-6.443,0.604-13.039,2.49-19.212,4.354
				c-12.309,3.717-26.657,6.893-37.198-0.47c-8.746-6.109-12.976-18.457-23.236-21.379c-4.243-1.208-9.048-0.573-12.844-2.82
				c-3.238-1.917-5.038-5.548-6.25-9.11c-5.013-14.73-2.581-31.789,6.348-44.533c4.082-5.826,9.462-10.859,12.22-17.417
				c1.765-4.197,1.974-9.407,0.24-13.463c-2.105,0.526-4.206,1.137-6.294,1.865c-37.446,13.059-57.215,54.001-44.156,91.446
				C125.739,583.236,166.68,603.005,204.126,589.946z"/>
			<path opacity="0.25" d="M112.68,545.791c13.059,37.445,54,57.214,91.446,44.155c28.512-9.943,46.755-36.055,48.082-64.477
				c-7.791-0.79-15.851,1.07-23.703,2.283c-17.481,2.7-38.366,0.613-48.132-14.136c-7.784-11.757-2.338-45.55-12.025-59.186
				c-0.695-0.978-1.467-1.852-2.328-2.606c-3.073,0.636-6.141,1.458-9.185,2.52C119.39,467.404,99.621,508.346,112.68,545.791z"/>
			<path fill="#FFFFFF" d="M54.96,538.445h39.321v-25.02H54.96c-4.51,0-8.167,3.656-8.167,8.166v8.688
				C46.793,534.789,50.45,538.445,54.96,538.445z"/>
			<path fill="#EAEAEA" d="M282.987,447.864l-57.128,52.251c0,0-14.29,2.117-14.235-13.546l48.093-59.452
				c3.449-4.264,9.377-5.693,14.329-3.336c4.371,2.08,9.104,5.711,11.423,12.007C286.998,439.938,285.98,444.608,282.987,447.864z"
				/>
			<path fill="#633C21" d="M233.932,500.201c0,0-3.868,8.318-22.778-2.144C211.154,498.058,226.953,511.348,233.932,500.201z"/>
			<path fill="#633C21" d="M221.375,510.751c0,0-21.662-6.266-20.869-28.869C200.507,481.882,194.602,505.281,221.375,510.751z"/>
			<path fill="#633C21" d="M212.287,477.165c0,0-11.864,6.175-3.084,19.871C209.203,497.036,197.127,480.901,212.287,477.165z"/>
		</g>
		<g clip-path="url(#SVGID_2_)">
			<circle opacity="0.25" cx="1269.652" cy="462.363" r="222.228"/>
			<circle fill="#DDDDDD" cx="1288.396" cy="433.39" r="222.228"/>
			<circle fill="#969696" cx="1288.396" cy="433.39" r="170.645"/>
			<circle fill="#C4C4C4" cx="1288.396" cy="433.39" r="161.021"/>
			<g>
				<path opacity="0.25" d="M1176.812,300.197l258.574-47.199c11.235-2.051,21.336,7.164,20.322,18.54l-22.418,251.59
					c-1.243,13.947-17.657,20.665-28.32,11.705c-0.029-0.024-0.061-0.041-0.09-0.065c-0.04-0.034-0.081-0.069-0.121-0.104
					l-4.474-3.872L1170.968,332.32l-2.365-2.047c-0.008-0.007-0.014-0.014-0.022-0.021c-0.35-0.304-0.683-0.617-1-0.938
					c-0.104-0.104-0.197-0.214-0.297-0.32c-0.215-0.227-0.429-0.454-0.627-0.688c-0.021-0.025-0.046-0.048-0.066-0.073
					c-0.031-0.037-0.054-0.077-0.084-0.114C1158.386,318.289,1163.553,302.617,1176.812,300.197z"/>
				<path fill="#E28A3B" d="M1449.346,242.165l-22.418,251.589c-1.251,14.039-17.873,20.76-28.53,11.537l-236.156-204.392
					c-10.973-9.497-6.067-27.47,8.208-30.076l258.575-47.198C1440.259,221.575,1450.359,230.789,1449.346,242.165z"/>
				<path fill="#BF763A" d="M1175.266,274.992l258.574-47.198c4.271-0.779,8.371,0.075,11.766,2.049
					c2.665,3.318,4.158,7.627,3.74,12.322l-22.418,251.589c-1.251,14.039-17.873,20.76-28.53,11.537l-231.34-200.223
					C1156.085,295.571,1160.99,277.598,1175.266,274.992z"/>
				<path fill="#E8C19E" d="M1162.241,300.899c-0.744-0.644-1.414-1.326-2.014-2.04c-4.288-5.107-1.325-12.968,5.235-14.166
					l248.485-45.357c11.235-2.051,21.336,7.164,20.321,18.54l-21.516,241.46c-0.621,6.979-8.897,10.598-14.236,6.058
					c-0.04-0.034-0.08-0.069-0.12-0.104L1162.241,300.899z"/>
				<path fill="#E2B48F" d="M1175.096,293.031l248.485-45.357c3.096-0.565,6.094-0.25,8.809,0.705
					c1.46,2.799,2.188,6.045,1.881,9.498l-21.517,241.46c-0.621,6.979-8.897,10.598-14.236,6.058c-0.04-0.034-0.08-0.069-0.12-0.104
					l-226.524-196.054c-0.743-0.644-1.413-1.326-2.013-2.04C1165.572,302.089,1168.535,294.228,1175.096,293.031z"/>
				<path opacity="0.4" fill="#CC8544" d="M1413.688,301.232c-1.915,4.917-7.687,7.98-12.832,6.812
					c-2.955-0.672-5.514-2.521-7.705-4.614c-0.463-0.442-0.932-0.927-1.099-1.545c-0.163-0.604-0.012-1.247,0.181-1.843
					c1.639-5.084,10.235-14.115,16.145-12.744C1413.659,288.523,1415.318,297.045,1413.688,301.232z"/>
				<path opacity="0.4" fill="#CC8544" d="M1402.847,396.147c2.166,1.75,4.306,3.532,6.417,5.347
					c0.625,0.537,1.292,1.161,1.369,1.981c0.062,0.671-0.29,1.303-0.632,1.884c-1.596,2.721-3.8,5.797-6.953,5.695
					c-1.045-0.034-2.044-0.437-2.968-0.927c-2.489-1.319-4.612-3.32-6.077-5.726c1.463-3.737,4.393-6.877,8.02-8.596"/>
				<path opacity="0.4" fill="#CC8544" d="M1164.615,302.936c-0.003,0.004-0.006,0.007-0.009,0.011l229.317,198.472
					c0.246-1.718,0.276-3.467-0.011-5.218c-2.245-13.698-18.374-24.7-14.222-37.946c3.703-11.812,22.159-16.864,20.934-29.183
					c-0.611-6.14-6.176-10.375-11.005-14.216c-4.828-3.842-9.81-9.255-8.598-15.305c1.433-7.149,10.777-10.69,11.949-17.887
					c0.541-3.33-0.851-6.677-0.81-10.05c0.119-9.841,11.681-15.884,14.003-25.448c1.862-7.671-2.768-15.485-8.45-20.965
					c-5.682-5.48-12.613-9.703-17.465-15.93c-4.852-6.227-7.075-15.633-2.217-21.854c1.953-2.501,4.806-4.176,6.786-6.657
					c1.979-2.479,2.794-6.488,0.441-8.618c-1.507-1.365-3.742-1.458-5.774-1.419c-7.795,0.152-13.479,2.736-20.74,4.099
					c-6.227,1.169-13.022-1.273-18.681,2.604c-8.686,5.95-6.277,22.491-16.239,25.901c-7.742,2.651-14.449-5.408-20.4-11.027
					c-2.753-2.599-6.229-4.946-10.001-4.614c-8.204,0.721-10.959,12.666-18.856,14.998c-10.125,2.989-17.605-11.522-28.141-12.202
					c-7.962-0.514-13.869,6.839-20.658,11.032c-8.938,5.518-21.021,5.452-29.897-0.164c-5.067-3.205-9.588-8.202-15.579-8.43
					C1173.865,292.676,1168.771,298.025,1164.615,302.936z M1282.697,323.495c2.642,0.267,5.803,2.574,8.026,3.987
					c4.373,2.779,12.313,8.245,8.744,14.526c-1.191,2.097-3.592,3.196-5.929,3.792c-4.581,1.17-9.666,0.849-13.734-1.563
					c-4.067-2.411-6.888-7.093-6.431-11.799C1273.79,328.148,1277.945,323.014,1282.697,323.495z M1248.432,314.509
					c1.974-2.385,5.858-3.741,8.819-2.251c2.994,1.507,2.191,6.881,0.237,8.972c-2.052,2.196-5.72,2.645-8.239,1.008
					c-0.926-0.602-1.706-1.467-2.069-2.509C1246.563,317.962,1247.238,315.95,1248.432,314.509z"/>
				<path opacity="0.4" fill="#CC8544" d="M1322.002,284.413c-1.523,3.069-5.299,4.578-8.697,4.143s-6.406-2.492-8.75-4.99
					c-0.516-0.548-1.035-1.2-1.002-1.952c0.021-0.505,0.293-0.962,0.567-1.387c1.404-2.178,3.085-4.179,4.988-5.938
					c0.789-0.729,1.646-1.434,2.669-1.758c3.411-1.08,7.603,2.371,9.387,4.951C1322.486,279.391,1323.073,282.255,1322.002,284.413z
					"/>
			</g>
			<g>
				<path opacity="0.25" d="M1141.047,337.054l-14.375,262.454c-0.625,11.403,9.784,20.268,20.943,17.835l246.787-53.814
					c13.682-2.983,18.285-20.11,8.059-29.565c-0.027-0.026-0.048-0.055-0.076-0.081c-0.039-0.035-0.078-0.071-0.118-0.106
					l-4.403-3.953l-225.681-202.596l-2.328-2.09c-0.007-0.007-0.016-0.012-0.023-0.02c-0.345-0.309-0.697-0.6-1.056-0.875
					c-0.116-0.09-0.236-0.168-0.354-0.255c-0.253-0.184-0.505-0.368-0.763-0.535c-0.026-0.018-0.053-0.039-0.08-0.057
					c-0.04-0.026-0.083-0.043-0.124-0.068C1156.684,316.504,1141.784,323.597,1141.047,337.054z"/>
				<path fill="#E28A3B" d="M1129.961,603.635l246.787-53.814c13.771-3.003,18.354-20.338,7.865-29.753l-232.412-208.639
					c-10.798-9.694-28.014-2.572-28.808,11.918L1109.019,585.8C1108.394,597.203,1118.803,606.068,1129.961,603.635z"/>
				<path fill="#BF763A" d="M1128.134,327.602l-14.376,262.453c-0.236,4.334,1.125,8.296,3.511,11.415
					c3.626,2.228,8.089,3.169,12.693,2.165l246.786-53.814c13.771-3.003,18.354-20.338,7.865-29.753l-227.672-204.384
					C1146.143,305.99,1128.927,313.112,1128.134,327.602z"/>
				<path fill="#E8C19E" d="M1152.201,311.429c-0.731-0.657-1.492-1.236-2.276-1.742c-5.605-3.613-13.032,0.313-13.396,6.972
					l-13.814,252.213c-0.625,11.403,9.784,20.268,20.943,17.834l236.851-51.647c6.848-1.493,9.398-10.158,4.224-14.884
					c-0.039-0.036-0.079-0.071-0.118-0.107L1152.201,311.429z"/>
				<path fill="#E2B48F" d="M1146.008,325.169l-13.814,252.212c-0.172,3.143,0.517,6.077,1.805,8.65
					c2.961,1.098,6.272,1.412,9.659,0.674l236.851-51.647c6.848-1.493,9.398-10.158,4.224-14.884
					c-0.039-0.036-0.079-0.071-0.118-0.107l-222.932-200.129c-0.732-0.657-1.493-1.236-2.277-1.741
					C1153.799,314.584,1146.373,318.51,1146.008,325.169z"/>
				<path opacity="0.4" fill="#CC8544" d="M1184.087,560.846c4.638-2.517,6.953-8.627,5.147-13.585
					c-1.037-2.849-3.192-5.154-5.544-7.066c-0.497-0.403-1.037-0.808-1.671-0.896c-0.621-0.086-1.239,0.146-1.807,0.411
					c-4.838,2.264-12.719,11.925-10.617,17.615C1171.476,562.412,1180.139,562.989,1184.087,560.846z"/>
				<path opacity="0.4" fill="#CC8544" d="M1276.892,538.179c2.007,1.93,4.044,3.828,6.109,5.695
					c0.611,0.553,1.313,1.137,2.137,1.109c0.674-0.021,1.257-0.451,1.79-0.862c2.499-1.926,5.274-4.498,4.777-7.613
					c-0.164-1.032-0.69-1.973-1.292-2.828c-1.621-2.304-3.873-4.159-6.443-5.311c-3.524,1.921-6.272,5.222-7.522,9.035"/>
				<path opacity="0.4" fill="#CC8544" d="M1146.552,330.34c0.979,5.915,6.503,9.773,10.318,14.397
					c6.686,8.101,8.268,20.081,3.914,29.641c-3.308,7.261-9.86,14.044-8.352,21.879c1.996,10.366,17.331,15.967,15.637,26.386
					c-1.322,8.128-12.827,12.36-12.514,20.59c0.145,3.784,2.909,6.938,5.834,9.343c6.32,5.199,15.158,10.841,13.5,18.855
					c-2.134,10.311-18.846,9.998-23.659,19.361c-3.136,6.1,0.14,12.535-0.238,18.859c-0.441,7.376-2.291,13.338-1.464,21.091
					c0.216,2.021,0.59,4.228,2.132,5.551c2.409,2.066,6.283,0.756,8.495-1.52s3.517-5.315,5.753-7.567
					c5.562-5.601,15.173-4.575,21.96-0.544c6.786,4.032,11.846,10.379,17.995,15.328s14.483,8.562,21.859,5.752
					c9.197-3.504,13.741-15.732,23.49-17.086c3.341-0.464,6.836,0.497,10.071-0.458c6.993-2.065,9.332-11.781,16.245-14.1
					c5.851-1.961,11.847,2.301,16.264,6.609s9.316,9.298,15.484,9.133c12.375-0.329,15.07-19.273,26.325-24.43
					c12.619-5.782,25.56,8.84,39.431,9.348c1.772,0.065,3.505-0.185,5.177-0.645l-225.681-202.597
					c-0.004,0.003-0.007,0.007-0.01,0.01C1150.169,318.268,1145.502,323.993,1146.552,330.34z M1197.438,417.725
					c4.611-1.044,9.61,1.167,12.513,4.9c2.903,3.733,3.86,8.737,3.274,13.43c-0.299,2.393-1.088,4.912-3.019,6.357
					c-5.783,4.33-12.202-2.861-15.509-6.852c-1.681-2.029-4.366-4.875-4.963-7.462
					C1188.661,423.442,1193.233,418.676,1197.438,417.725z M1181.541,393.333c1.08,0.23,2.036,0.895,2.749,1.738
					c1.94,2.294,1.955,5.99,0.034,8.301c-1.829,2.201-7.061,3.672-8.931,0.891c-1.85-2.75-0.992-6.774,1.126-9.032
					C1177.8,393.865,1179.711,392.943,1181.541,393.333z"/>
				<path opacity="0.4" fill="#CC8544" d="M1155.895,471.996c2.854-1.896,3.877-5.831,3.019-9.148s-3.276-6.043-6.049-8.056
					c-0.608-0.442-1.321-0.875-2.062-0.749c-0.498,0.085-0.917,0.412-1.305,0.737c-1.984,1.667-3.759,3.585-5.266,5.694
					c-0.625,0.875-1.216,1.812-1.409,2.87c-0.643,3.519,3.306,7.244,6.09,8.691C1150.973,473.106,1153.889,473.329,1155.895,471.996
					z"/>
			</g>
		</g>
		<g clip-path="url(#SVGID_2_)">
			<path fill="#8D0026" d="M152.762,665.165c0,0,0.563,6.746,15.37,6.022c0,0,12.583,0.036,13.723-6.857
				c1.14-6.895-11.016-8.667-11.016-8.667S151.683,652.236,152.762,665.165z"/>
			<path fill="#D1491F" d="M167.764,656.899c-2.963,1.307-4.11,3.003-4.547,3.988c-1.4,0.109-2.841,0.267-4.3,0.479
				c2.938-2.08,3.728-4.082,3.728-4.082c-3.217,1.419-4.294,3.297-4.645,4.224c-1.375,0.224-2.759,0.496-4.137,0.835
				c0,0,1.413,0.126,3.614,0.243c0.41,0.827,1.714,2.739,5.321,3.712c0,0-1.137-2.008-4.525-3.672
				c1.463,0.069,3.194,0.13,5.061,0.148c0.541,0.922,1.921,2.565,5.176,3.443c0,0-1.027-1.825-4.056-3.437
				c1.303,0.001,2.652-0.02,4.005-0.071c0.525,0.914,1.898,2.588,5.195,3.477c0,0-1.068-1.889-4.222-3.521
				c3.505-0.176,6.954-0.582,9.559-1.393c0,0-3.847-0.578-9.332-0.613c2.554-1.951,3.259-3.737,3.259-3.737
				c-2.725,1.201-3.914,2.734-4.428,3.738c-1.333,0.012-2.745,0.057-4.211,0.149C167.022,658.793,167.764,656.899,167.764,656.899z"
				/>
		</g>
		<g clip-path="url(#SVGID_2_)">
			<path fill="#8D0026" d="M244.751,637.561c0,0,2.596,3.166,9.722-2.278c0,0,6.279-4.302,4.479-8.127
				c-1.799-3.824-8.461-0.533-8.461-0.533S239.774,631.492,244.751,637.561z"/>
			<path fill="#D1491F" d="M249.384,628.293c-1.027,1.668-1.016,2.907-0.896,3.548c-0.66,0.535-1.323,1.108-1.977,1.716
				c0.749-2.045,0.455-3.313,0.455-3.313c-1.115,1.812-1.006,3.116-0.863,3.698c-0.608,0.583-1.204,1.194-1.773,1.836
				c0,0,0.747-0.422,1.883-1.12c0.488,0.271,1.794,0.776,3.925,0.021c0,0-1.256-0.609-3.514-0.274
				c0.752-0.468,1.635-1.032,2.571-1.664c0.585,0.273,1.837,0.618,3.76-0.062c0,0-1.138-0.556-3.2-0.318
				c0.649-0.447,1.314-0.92,1.97-1.411c0.576,0.275,1.833,0.638,3.781-0.052c0,0-1.18-0.573-3.312-0.304
				c1.685-1.291,3.263-2.678,4.282-3.976c0,0-2.114,1.033-4.857,2.899c0.602-1.849,0.339-2.981,0.339-2.981
				c-0.944,1.534-1.01,2.706-0.921,3.383c-0.66,0.463-1.348,0.971-2.046,1.521C249.665,629.491,249.384,628.293,249.384,628.293z"/>
		</g>
		<g clip-path="url(#SVGID_2_)">
			<path fill="#8D0026" d="M267.167,642.967c0,0,5.782,0.957,8.312-11.627c0,0,2.697-10.555-2.849-12.973s-9.609,7.411-9.609,7.411
				S256.084,641.133,267.167,642.967z"/>
			<path fill="#D1491F" d="M263.406,628.621c0.469,2.765,1.65,4.087,2.384,4.663c-0.204,1.198-0.378,2.441-0.508,3.712
				c-1.124-2.907-2.637-3.995-2.637-3.995c0.509,3.002,1.858,4.304,2.562,4.795c-0.104,1.2-0.168,2.421-0.176,3.649
				c0,0,0.405-1.159,0.97-2.983c0.782-0.169,2.663-0.858,4.244-3.681c0,0-1.926,0.529-4.042,3.021
				c0.369-1.213,0.786-2.653,1.198-4.217c0.888-0.259,2.561-1.069,3.987-3.615c0,0-1.75,0.476-3.745,2.677
				c0.277-1.093,0.546-2.23,0.789-3.377c0.878-0.248,2.575-1.045,4.02-3.624c0,0-1.812,0.496-3.85,2.799
				c0.594-2.98,0.984-5.962,0.856-8.32c0,0-1.301,3.106-2.492,7.704c-1.097-2.557-2.448-3.528-2.448-3.528
				c0.432,2.542,1.466,3.865,2.201,4.51c-0.273,1.121-0.535,2.316-0.767,3.567C264.839,629.646,263.406,628.621,263.406,628.621z"/>
		</g>
		<g clip-path="url(#SVGID_2_)">
			<path fill="#8D0026" d="M239.231,651.423c0,0,0.725,5.815,13.509,4.667c0,0,10.887-0.413,11.629-6.418
				c0.743-6.004-9.836-7.107-9.836-7.107S237.84,640.276,239.231,651.423z"/>
			<path fill="#D1491F" d="M251.917,643.742c-2.517,1.235-3.449,2.743-3.793,3.61c-1.208,0.145-2.449,0.331-3.703,0.567
				c2.468-1.903,3.081-3.663,3.081-3.663c-2.733,1.341-3.599,3.004-3.869,3.818c-1.181,0.241-2.369,0.526-3.549,0.867
				c0,0,1.227,0.06,3.136,0.083c0.384,0.701,1.58,2.31,4.734,3.023c0,0-1.054-1.697-4.044-3.017c1.268,0.008,2.767-0.001,4.383-0.05
				c0.5,0.777,1.752,2.15,4.599,2.795c0,0-0.953-1.542-3.63-2.83c1.127-0.044,2.293-0.109,3.462-0.202
				c0.487,0.771,1.733,2.172,4.617,2.824c0,0-0.991-1.596-3.777-2.896c3.026-0.276,5.996-0.75,8.22-1.542
				c0,0-3.348-0.365-8.094-0.201c2.14-1.778,2.688-3.349,2.688-3.349c-2.315,1.136-3.29,2.504-3.699,3.391
				c-1.152,0.057-2.372,0.146-3.638,0.278C251.342,645.406,251.917,643.742,251.917,643.742z"/>
		</g>
		<g clip-path="url(#SVGID_2_)">
			<path fill="#8D0026" d="M1280.363,597.271c0,0,3.733,4.553,13.979-3.275c0,0,9.027-6.186,6.44-11.685s-12.166-0.767-12.166-0.767
				S1273.208,588.547,1280.363,597.271z"/>
			<path fill="#D1491F" d="M1287.024,583.947c-1.477,2.398-1.46,4.18-1.287,5.101c-0.948,0.771-1.902,1.594-2.843,2.467
				c1.077-2.94,0.654-4.764,0.654-4.764c-1.603,2.604-1.447,4.481-1.24,5.317c-0.874,0.838-1.731,1.718-2.551,2.64
				c0,0,1.074-0.607,2.709-1.61c0.701,0.391,2.579,1.115,5.643,0.031c0,0-1.806-0.877-5.053-0.396
				c1.081-0.672,2.351-1.483,3.697-2.392c0.842,0.393,2.642,0.889,5.405-0.09c0,0-1.637-0.8-4.601-0.458
				c0.934-0.643,1.89-1.323,2.832-2.028c0.828,0.395,2.637,0.916,5.437-0.075c0,0-1.697-0.824-4.762-0.437
				c2.423-1.856,4.692-3.85,6.157-5.716c0,0-3.04,1.485-6.984,4.168c0.865-2.658,0.488-4.285,0.488-4.285
				c-1.357,2.205-1.453,3.89-1.325,4.863c-0.948,0.665-1.938,1.395-2.941,2.186C1287.429,585.67,1287.024,583.947,1287.024,583.947z
				"/>
		</g>
		<g clip-path="url(#SVGID_2_)">
			<path fill="#8D0026" d="M1309.401,615.571c0,0,8.313,1.376,11.951-16.717c0,0,3.877-15.176-4.097-18.652
				c-7.973-3.477-13.815,10.655-13.815,10.655S1293.467,612.935,1309.401,615.571z"/>
			<path fill="#D1491F" d="M1303.995,594.945c0.675,3.975,2.373,5.876,3.428,6.704c-0.294,1.724-0.544,3.511-0.73,5.337
				c-1.616-4.18-3.792-5.744-3.792-5.744c0.733,4.316,2.672,6.188,3.684,6.894c-0.149,1.727-0.242,3.481-0.254,5.247
				c0,0,0.583-1.666,1.396-4.288c1.124-0.243,3.828-1.234,6.101-5.292c0,0-2.77,0.761-5.811,4.343
				c0.53-1.744,1.13-3.815,1.723-6.063c1.276-0.371,3.682-1.537,5.731-5.197c0,0-2.515,0.684-5.384,3.849
				c0.399-1.572,0.786-3.207,1.135-4.856c1.264-0.355,3.702-1.502,5.779-5.21c0,0-2.604,0.714-5.535,4.023
				c0.854-4.284,1.415-8.571,1.231-11.962c0,0-1.87,4.467-3.583,11.076c-1.578-3.676-3.52-5.072-3.52-5.072
				c0.621,3.655,2.108,5.558,3.164,6.484c-0.393,1.611-0.769,3.33-1.103,5.129C1306.055,596.418,1303.995,594.945,1303.995,594.945z
				"/>
		</g>
		<g clip-path="url(#SVGID_2_)">
			<path fill="#8D0026" d="M1253.497,615.457c0,0,1.043,8.362,19.423,6.71c0,0,15.652-0.594,16.721-9.227
				c1.067-8.633-14.143-10.22-14.143-10.22S1251.498,599.431,1253.497,615.457z"/>
			<path fill="#D1491F" d="M1271.736,604.414c-3.619,1.776-4.959,3.944-5.453,5.191c-1.736,0.208-3.521,0.477-5.324,0.815
				c3.549-2.737,4.43-5.267,4.43-5.267c-3.93,1.929-5.174,4.319-5.563,5.489c-1.698,0.348-3.406,0.757-5.103,1.248
				c0,0,1.764,0.085,4.508,0.119c0.553,1.009,2.271,3.32,6.808,4.347c0,0-1.517-2.439-5.815-4.338c1.823,0.013,3.979,0,6.303-0.071
				c0.719,1.118,2.52,3.093,6.612,4.02c0,0-1.37-2.218-5.22-4.068c1.621-0.064,3.298-0.158,4.979-0.292
				c0.7,1.109,2.491,3.122,6.638,4.061c0,0-1.425-2.295-5.431-4.164c4.351-0.397,8.62-1.078,11.818-2.218
				c0,0-4.813-0.523-11.638-0.288c3.077-2.558,3.864-4.815,3.864-4.815c-3.328,1.634-4.729,3.6-5.318,4.876
				c-1.656,0.081-3.411,0.209-5.23,0.398C1270.91,606.808,1271.736,604.414,1271.736,604.414z"/>
		</g>
		<g clip-path="url(#SVGID_2_)">
			<path fill="#8D0026" d="M197.035,652.94c0,0-0.378,4.532-10.327,4.046c0,0-8.455,0.024-9.221-4.607s7.402-5.823,7.402-5.823
				S197.76,644.253,197.035,652.94z"/>
			<path fill="#D1491F" d="M186.955,647.387c1.991,0.878,2.761,2.018,3.055,2.679c0.941,0.074,1.909,0.18,2.89,0.323
				c-1.974-1.398-2.505-2.743-2.505-2.743c2.162,0.954,2.885,2.216,3.121,2.838c0.923,0.15,1.854,0.334,2.779,0.561
				c0,0-0.949,0.085-2.429,0.164c-0.275,0.556-1.151,1.84-3.575,2.493c0,0,0.764-1.349,3.041-2.467
				c-0.983,0.047-2.146,0.088-3.401,0.101c-0.363,0.619-1.291,1.724-3.477,2.312c0,0,0.69-1.226,2.725-2.309
				c-0.875,0.001-1.782-0.013-2.691-0.048c-0.353,0.614-1.275,1.739-3.491,2.336c0,0,0.718-1.269,2.837-2.365
				c-2.355-0.118-4.673-0.392-6.423-0.936c0,0,2.584-0.389,6.27-0.412c-1.716-1.311-2.19-2.512-2.19-2.512
				c1.831,0.808,2.63,1.838,2.976,2.513c0.895,0.007,1.844,0.037,2.83,0.1C187.453,648.659,186.955,647.387,186.955,647.387z"/>
		</g>
		<g clip-path="url(#SVGID_2_)">
			<path fill="#8D0026" d="M190.832,678.448c0,0,5.783,5.003,17.17-7.277c0,0,10.191-9.909,5.667-16.378s-15.743,1.702-15.743,1.702
				S179.748,668.858,190.832,678.448z"/>
			<path fill="#D1491F" d="M196.419,659.922c-1.36,3.396-0.947,5.672-0.522,6.812c-1.044,1.195-2.083,2.46-3.094,3.785
				c0.729-4.001-0.214-6.242-0.214-6.242c-1.478,3.688-0.864,6.056-0.415,7.081c-0.934,1.266-1.836,2.58-2.682,3.941
				c0,0,1.241-1.015,3.111-2.659c0.985,0.345,3.548,0.859,7.229-1.205c0,0-2.504-0.724-6.555,0.608
				c1.236-1.099,2.682-2.418,4.205-3.877c1.164,0.317,3.578,0.555,6.899-1.308c0,0-2.271-0.662-5.991,0.429
				c1.054-1.028,2.127-2.11,3.179-3.222c1.146,0.323,3.577,0.592,6.942-1.295c0,0-2.354-0.682-6.191,0.492
				c2.692-2.911,5.156-5.964,6.621-8.676c0,0-3.563,2.572-8.021,6.876c0.521-3.593-0.321-5.593-0.321-5.593
				c-1.251,3.123-1.001,5.3-0.623,6.518c-1.067,1.061-2.172,2.213-3.283,3.447C197.316,662.037,196.419,659.922,196.419,659.922z"/>
		</g>
		<g clip-path="url(#SVGID_2_)">
			<path fill="#8D0026" d="M133.863,725.119c0,0-0.323,7.641,16.375,8.925c0,0,14.098,1.821,16.351-5.744
				c2.253-7.565-11.121-11.272-11.121-11.272S134.483,710.476,133.863,725.119z"/>
			<path fill="#D1491F" d="M151.847,717.978c-3.506,1.046-5.031,2.785-5.661,3.826c-1.585-0.074-3.222-0.103-4.888-0.07
				c3.587-1.916,4.756-4.048,4.756-4.048c-3.807,1.136-5.279,3.088-5.804,4.077c-1.572,0.056-3.163,0.165-4.754,0.35
				c0,0,1.565,0.342,4.017,0.784c0.343,0.985,1.534,3.312,5.439,4.913c0,0-0.99-2.411-4.552-4.756
				c1.629,0.285,3.561,0.598,5.651,0.884c0.476,1.108,1.791,3.146,5.314,4.591c0,0-0.893-2.19-4.06-4.426
				c1.46,0.186,2.976,0.354,4.499,0.487c0.46,1.099,1.761,3.169,5.331,4.632c0,0-0.93-2.269-4.234-4.543
				c3.954,0.298,7.876,0.33,10.911-0.209c0,0-4.229-1.192-10.372-2.007c3.138-1.826,4.182-3.729,4.182-3.729
				c-3.224,0.961-4.774,2.511-5.492,3.563c-1.495-0.176-3.084-0.325-4.742-0.429C150.748,719.995,151.847,717.978,151.847,717.978z"
				/>
		</g>
		<g clip-path="url(#SVGID_2_)">
			<path fill="#8D0026" d="M193.231,744.851c0,0,2.878,5.578,15.303-0.303c0,0,10.791-4.438,9.318-10.749
				c-1.473-6.31-12.514-3.509-12.514-3.509S187.714,734.16,193.231,744.851z"/>
			<path fill="#D1491F" d="M203.144,732.441c-2.073,2.172-2.453,4.032-2.478,5.031c-1.161,0.592-2.339,1.237-3.513,1.938
				c1.777-2.825,1.742-4.82,1.742-4.82c-2.251,2.358-2.506,4.35-2.478,5.268c-1.098,0.68-2.187,1.405-3.247,2.185
				c0,0,1.255-0.395,3.182-1.076c0.646,0.563,2.441,1.737,5.876,1.289c0,0-1.687-1.316-5.18-1.538
				c1.277-0.46,2.782-1.023,4.388-1.67c0.791,0.598,2.557,1.515,5.656,1.11c0,0-1.528-1.198-4.695-1.503
				c1.116-0.461,2.265-0.958,3.405-1.483c0.774,0.596,2.544,1.542,5.685,1.133c0,0-1.586-1.238-4.867-1.516
				c2.939-1.396,5.749-2.97,7.692-4.589c0,0-3.5,0.871-8.21,2.79c1.494-2.578,1.463-4.359,1.463-4.359
				c-1.907,1.997-2.381,3.732-2.464,4.775c-1.137,0.483-2.331,1.023-3.554,1.624C203.182,734.327,203.144,732.441,203.144,732.441z"
				/>
		</g>
		<g clip-path="url(#SVGID_2_)">
			<path fill="#8D0026" d="M63.965,701.361c0,0-2.484,5.765,9.946,11.635c0,0,10.278,5.521,14.22,0.379
				c3.942-5.143-5.23-11.897-5.23-11.897S68.725,690.312,63.965,701.361z"/>
			<path fill="#D1491F" d="M79.846,701.146c-2.995-0.225-4.673,0.663-5.461,1.277c-1.194-0.521-2.441-1.021-3.728-1.483
				c3.312-0.42,4.832-1.713,4.832-1.713c-3.252-0.243-4.953,0.823-5.644,1.428c-1.221-0.417-2.474-0.798-3.748-1.122
				c0,0,1.101,0.72,2.851,1.776c-0.026,0.855,0.207,2.989,2.733,5.359c0,0-0.054-2.14-2.1-4.979c1.166,0.695,2.556,1.5,4.075,2.331
				c0.04,0.989,0.452,2.938,2.732,5.075c0,0-0.044-1.941-1.819-4.582c1.065,0.57,2.178,1.143,3.308,1.69
				c0.031,0.977,0.423,2.945,2.732,5.111c0,0-0.05-2.011-1.918-4.723c2.945,1.386,5.943,2.559,8.428,3.032
				c0,0-2.895-2.151-7.367-4.574c2.941-0.481,4.298-1.636,4.298-1.636c-2.753-0.206-4.396,0.529-5.255,1.127
				c-1.095-0.573-2.27-1.152-3.51-1.717C78.412,702.372,79.846,701.146,79.846,701.146z"/>
		</g>
		<g clip-path="url(#SVGID_2_)">
			<path fill="#8D0026" d="M183.661,797.971c0,0,1.206,4.923,12.069,2.656c0,0,9.309-1.445,9.345-6.676
				c0.037-5.231-9.159-5.12-9.159-5.12S181.351,788.537,183.661,797.971z"/>
			<path fill="#D1491F" d="M193.788,790.104c-2.038,1.312-2.688,2.701-2.896,3.48c-1.022,0.245-2.07,0.529-3.124,0.858
				c1.929-1.883,2.279-3.455,2.279-3.455c-2.213,1.426-2.79,2.94-2.94,3.667c-0.99,0.325-1.982,0.689-2.961,1.101
				c0,0,1.06-0.072,2.701-0.243c0.4,0.564,1.588,1.825,4.369,2.122c0,0-1.075-1.352-3.775-2.186c1.09-0.119,2.377-0.277,3.76-0.481
				c0.507,0.618,1.72,1.672,4.229,1.94c0,0-0.973-1.229-3.401-2.067c0.963-0.151,1.959-0.323,2.954-0.521
				c0.495,0.614,1.706,1.691,4.248,1.963c0,0-1.011-1.271-3.534-2.108c2.571-0.541,5.074-1.244,6.905-2.148
				c0,0-2.912,0.022-6.972,0.639c1.66-1.742,1.973-3.146,1.973-3.146c-1.875,1.207-2.575,2.479-2.837,3.282
				c-0.984,0.164-2.023,0.362-3.097,0.604C193.461,791.592,193.788,790.104,193.788,790.104z"/>
		</g>
	</g>
</g>
</svg>
